<?xml version="1.0" encoding="UTF-8"?>
<svg id="Layer_1" data-name="Layer 1" xmlns="http://www.w3.org/2000/svg" viewBox="0 0 250 250">
  <defs>
    <style>
      .cls-1 {
        fill: #d81f26;
      }

      .cls-2 {
        fill: #5683c3;
      }
    </style>
  </defs>
  <path d="m102.41,210.37c-22.27-3.81-41.89-13.2-59.65-26.74-14.62-11.14-26.52-24.78-36.82-39.9-1.61-2.37-1.46-4.71.09-7.04,7.48-11.24,15.78-21.78,25.82-30.9,13.8-12.53,29.22-22.44,46.69-29.05,9.95-3.77,20.21-6.27,30.8-7.49,3.3-.38,6.61-.52,9.91-.86.99-.1,1.53-.44,1.93-1.35,3.32-7.61,6.68-15.21,10.03-22.82.3-.69.62-1.37.96-2.03.43-.84,1.07-1.43,2.06-1.01.94.39,1.13,1.19.89,2.15-.69,2.7-1.38,5.4-2.03,8.1-1.26,5.26-2.5,10.52-3.75,15.79-.06.25-.08.51-.13.85,1.15.48,2.34.5,3.47.56,7.4.35,14.66,1.63,21.83,3.39,1.66.41,2.33-.08,2.87-1.53,3.16-8.54,6.36-17.07,9.56-25.6,1.96-5.22,3.94-10.43,5.92-15.64.32-.84.71-1.69,1.83-1.28,1,.36,1.14,1.18.83,2.11-.03.1-.03.21-.05.32-1.56,7.81-3.13,15.63-4.69,23.44-1.32,6.61-2.61,13.23-3.96,19.83-.28,1.35-.08,2.03,1.42,2.56,6.73,2.39,13.22,5.33,19.49,8.74.65.35,1.32.68,2.13,1.09,1.3-2.83,2.54-5.54,3.78-8.25,1.21-2.63,2.41-5.26,3.63-7.89.41-.89.83-1.92,2.08-1.49,1.35.47.99,1.65.74,2.6-1.15,4.29-2.36,8.57-3.56,12.85-.33,1.19-.57,2.41-1.06,3.54-.6,1.4-.06,2.09,1.1,2.83,18.79,11.99,33.96,27.6,46.12,46.22,1.66,2.54,1.8,5,.04,7.62-11.3,16.81-24.93,31.35-41.53,43.05-15.97,11.27-33.36,19.3-52.64,22.91-11,2.06-22.1,2.48-33.27,1.79-4.28-.26-8.51-.83-12.88-1.46m-58.69-39.71c21.4,19.79,46.43,31.35,75.7,33.12,7.45.45,14.89-.14,22.25-1.32,11.12-1.77,21.72-5.24,31.88-10.12,23.32-11.19,41-28.54,54.91-50.05,1.06-1.64.92-3.24-.15-4.8-.94-1.37-1.92-2.71-2.89-4.06-8.62-12-18.42-22.88-30.34-31.73-.92-.69-1.78-1.52-2.87-1.82-.51.35-.57.78-.69,1.19-2.64,9.05-5.31,18.09-7.92,27.15-1.01,3.48-2.23,6.93-1.65,10.69.66,4.23.15,8.47-.56,12.63-1.99,11.53-7.14,21.57-15.26,29.92-15.34,15.77-34.06,21.04-55.41,16.51-13.76-2.92-25.09-10.13-33.53-21.46-10.82-14.52-14.56-30.84-9.89-48.32,5.7-21.33,19.56-34.98,41.25-40.25,1.44-.35,2.53-1.04,3.32-2.3,1.48-2.37,2.85-4.79,4.04-7.31.17-.37.47-.73.2-1.29-3.58.23-7.18.65-10.74,1.27-15.79,2.76-30.29,8.8-43.72,17.48-16.81,10.87-30.04,25.27-41.17,41.74-1.07,1.58-1.05,3.21,0,4.81,6.72,10.19,14.13,19.82,23.26,28.33m136.6-45.89c1.45-5.07,3.12-10.08,4.17-15.26-1.9,3.33-3.61,6.72-5.33,10.1-.61,1.2-1.26,2.38-2.18,3.37-1.18,1.27-2.47,1.25-3.53-.11-.76-.96-1.39-2.03-2.04-3.08-1.04-1.66-2.05-3.34-3.1-5.05-.84.62-1.15,1.38-1.53,2.07-2.53,4.54-5.01,9.12-7.55,13.65-2.44,4.35-4.75,8.77-7.55,12.91-.56.84-1.2,1.6-2.36,1.15-1.18-.45-1.11-1.4-.9-2.42,2.38-11.91,4.75-23.82,7.11-35.73,1.43-7.24,2.87-14.48,4.24-21.74.13-.67.75-1.7-.42-2.08-1.25-.41-1.18.85-1.44,1.47-1.71,4.05-3.26,8.16-5.26,12.09-1.28,2.52-1.66,2.68-4.22,1.58-.39-.17-.78-.35-1.18-.52-8.03-3.47-16.28-5.99-25.16-5.8-1.71.04-2.42-.94-2.28-2.74.25-3.26,1.31-6.37,1.63-9.63-1.43,2.82-3.03,5.53-4.42,8.36-1.53,3.13-3.66,5.18-7.25,5.48-.68.06-1.35.34-2.02.53-13.15,3.7-23.33,11.38-30.29,23.12-6.68,11.27-8.51,23.42-5.78,36.24,2.42,11.34,7.88,21,16.72,28.45,13.26,11.18,28.7,15.18,45.66,11.93,19.57-3.76,32.84-15.46,40-33.97,2.55-6.6,3.62-13.53,2.87-20.66-.17-1.65-.06-3.28.53-4.9,1.01-2.82,1.85-5.7,2.86-8.8m-12.44-38.97c-1.05-.3-1.94-1.11-3.32-1.02-2.73,13.35-5.45,26.68-8.17,40.01.37-.04.49-.14.57-.27,2.89-4.52,5.12-9.41,7.8-14.05,2.13-3.68,4.31-3.85,6.81-.5.7.94,1.33,1.95,1.98,2.93.61.93,1.21,1.87,1.81,2.78.64-.24.8-.72,1-1.14,2.91-6.03,5.79-12.08,8.75-18.09.61-1.23.06-1.7-.87-2.26-5.2-3.12-10.56-5.93-16.36-8.4m-32.46,1.8c4.89.94,9.48,2.87,14.33,4.54,1.26-3.85,2.45-7.49,3.64-11.13-.32-.22-.47-.39-.66-.45-.45-.16-.92-.29-1.38-.41-7.42-1.94-14.99-2.97-22.63-3.51-1.02-.07-1.63.22-1.84,1.29-.45,2.26-.92,4.51-1.45,6.74-.24.99.04,1.36,1.04,1.46,2.93.3,5.85.62,8.97,1.47Z"/>
  <path d="m113.04,153.97c-7.67-7.37-6.99-19.21,1.6-25.21,5.29-3.69,11.14-3.97,16.91-1.06,5.55,2.8,8.32,7.58,8.51,13.74.21,6.88-2.86,12.07-9.06,14.99-6.33,2.98-12.39,2.04-17.95-2.46Z"/>
  <path d="m110.69,163.7c13.17,7.89,30.06,2.73,36.63-11.09.97-2.05,2.41-2.65,3.91-1.61,1.38.96,1.25,2.22.67,3.57-2.95,6.87-7.95,11.78-14.69,14.85-14.33,6.54-31.06,1.9-39.48-11.54-9.62-15.34-3.37-35.69,13.36-42.78,11.49-4.87,22.28-3.35,32.22,4.18.38.29.75.61,1.08.97.94,1.02.99,2.13.11,3.18-.86,1.03-1.99,1.31-3.16.59-1-.61-1.9-1.39-2.86-2.07-14.36-10.23-35.39-2.53-39.7,14.53-2.57,10.18,2.22,21.18,11.92,27.21Z"/>
  <path class="cls-1" d="m84.23,153.44c.92-.15,1.72-.23,2.5.06,1.4.52,2.29,1.89,2.16,3.39-.14,1.56-1,2.63-2.49,2.97-1.49.34-2.88.04-3.79-1.39-.84-1.33-.72-2.98.35-4.14.32-.34.76-.57,1.27-.89Z"/>
  <path class="cls-1" d="m111.3,107.3c-1.57,1.53-2.8,1.84-4.21,1.09-1.34-.72-2.06-1.84-1.92-3.39.14-1.55,1.28-2.74,2.87-3.02,1.27-.22,2.33.25,3.1,1.23.99,1.25,1.12,2.61.16,4.1Z"/>
  <path class="cls-2" d="m166.58,147.91c1.89,1.27,2.4,2.49,1.82,4.06-.61,1.64-1.96,2.5-3.59,2.3-1.91-.24-3.3-2.06-2.96-3.87.42-2.2,2.29-3.23,4.73-2.49Z"/>
  <path class="cls-1" d="m142.49,105.2c-.34,2.2-1.34,3.38-2.99,3.53-1.54.14-2.7-.58-3.38-1.94-.87-1.75-.08-3.82,1.65-4.55,1.76-.74,3.74.1,4.46,1.91.12.29.16.62.25,1.05Z"/>
  <path class="cls-1" d="m83.55,124.33c2.04-1.43,4.07-1.18,5.26.55,1.01,1.47.65,3.38-.86,4.51-1.28.95-3.07.86-4.26-.23-1.37-1.26-1.45-2.86-.14-4.83Z"/>
  <path class="cls-1" d="m169.25,136.3c-.93,3.02-3.7,4.09-5.66,2.27-1.07-1-1.42-2.24-.87-3.65.51-1.32,1.43-2.11,2.88-2.19,1.57-.08,2.66.69,3.33,2.06.2.42.23.93.33,1.52Z"/>
  <path class="cls-2" d="m79.89,143.61c-.94-1.93-.76-3.45.44-4.47,1.25-1.06,3-1.12,4.28-.15,1.56,1.18,1.8,3.37.53,4.82-1.43,1.63-3.42,1.59-5.25-.2Z"/>
  <path class="cls-2" d="m93.29,116.81c-1.58-1.65-1.8-3.38-.72-4.82.9-1.2,2.81-1.61,4.21-.9,1.64.83,2.3,2.91,1.45,4.55-.89,1.7-2.84,2.2-4.93,1.18Z"/>
  <path class="cls-1" d="m132.12,184.54c-1.46-1.02-2.07-2.26-1.62-3.94.4-1.49,1.48-2.22,2.89-2.43,1.34-.2,2.39.43,3.1,1.58.84,1.34.75,2.69-.22,3.88-1.06,1.29-2.45,1.65-4.15.91Z"/>
  <path class="cls-2" d="m91.67,167.14c1.99-.99,3.78-.65,4.81.83.92,1.32.76,3.13-.39,4.27-1.24,1.23-3.46,1.27-4.66.09-1.5-1.47-1.45-3.38.24-5.18Z"/>
  <path class="cls-2" d="m146.89,172.17c2.18.05,3.33.77,3.73,2.23.43,1.55-.16,3.14-1.46,3.89-1.22.71-2.45.67-3.61-.11-1.11-.75-1.65-1.84-1.44-3.16.24-1.5,1.08-2.52,2.78-2.84Z"/>
  <path class="cls-2" d="m126.06,105.42c-2.44,1.89-5.46.04-5.5-2.23-.03-1.54.47-2.75,1.93-3.36,1.4-.59,2.74-.36,3.82.75,1.04,1.06,1.19,2.65.42,4-.16.27-.38.51-.68.84Z"/>
  <path class="cls-1" d="m161.67,165.51c-.65,2.24-2.07,3.16-4.07,2.76-1.61-.33-2.75-1.9-2.57-3.55.19-1.79,1.73-3.1,3.53-3.03,1.9.08,3.02,1.41,3.11,3.82Z"/>
  <path class="cls-1" d="m103.3,179.88c-.27-2.97.7-4.36,2.96-4.41,1.8-.04,3.14,1,3.48,2.69.28,1.4-.62,3.02-2.03,3.67-1.46.66-3.07.17-4.07-1.25-.12-.17-.2-.38-.34-.7Z"/>
  <path class="cls-2" d="m118.45,179.79c1.48-1.08,2.9-1.02,4.26-.13,1.22.79,1.48,2.06,1.23,3.39-.26,1.4-1.21,2.24-2.58,2.53-1.45.31-2.66-.22-3.44-1.46-.95-1.49-.75-2.94.52-4.33Z"/>
</svg>